<svg id="Layer_1" data-name="Layer 1" xmlns="http://www.w3.org/2000/svg" viewBox="0 0 44.01 44.01"><defs><style>.cls-1{fill:none;stroke:#b3b3b3;stroke-linejoin:round;}</style></defs><path class="cls-1" d="M40.5,28.5l3-6.45-3-6.55c3.32-3.63,0-8,0-8h3v-7h-7l0,3,0-.43s-4.59-3.32-8.22,0l1.24.43L22,.5l-6.45,3c-3.58-3.32-8,0-8,0v-3h-7v7h3s-3.32,4.37,0,8L.5,22l3,6.5c-3.32,3.58,0,8,0,8h-3v7h7v-3s4.37,3.32,8,0l6.55,3,6.45-3c3.58,3.32,8,0,8,0v3h7v-7h-3S43.82,32.08,40.5,28.5Z" transform="translate(0.01 0.01)"/></svg>