<svg xmlns="http://www.w3.org/2000/svg" viewBox="0 0 141.36 141.36"><path d="M83,113.09q-3.06-7-6.19-13.89t-6.13-14q-1-2.23-1.92-4.5T67,76.11q-.87-2.3-1.78-4.59,0,.77,0,1.53t0,1.53l-.18,6q-.11,3.53-.24,7.53t-.21,8c0,2.68-.1,5.19-.14,7.56,0,1-.08,2-.11,3.07s-.08,2-.17,2.85l2.61-.14,2.61-.14v3.07H56v-2.3a5.06,5.06,0,0,0,3.17-.94,4,4,0,0,0,1.29-2.33,23,23,0,0,0,.35-3.14l1.32-31.76c0-.92.08-1.85.11-2.78s0-1.84.1-2.72c-.84,0-1.67.08-2.51.11s-1.67.06-2.5.1v-3H68L80,91.29c.6,1.4,1.19,2.79,1.77,4.18s1.19,2.79,1.82,4.18,1.24,2.81,1.84,4.25h.14c.51-1.25,1.12-2.75,1.81-4.49s1.28-3.24,1.74-4.49q3.08-7.67,6.38-15.36T102,63.65h10.3V66a4.69,4.69,0,0,0-2.85.66,4,4,0,0,0-1.6,2.4,14.19,14.19,0,0,0-.35,4.53l1.81,31.68a20.4,20.4,0,0,1,.14,2.3v2c.83,0,1.68-.08,2.54-.1s1.71-.06,2.54-.11v3.07H98.9v-2.3a4.84,4.84,0,0,0,3.21-1,4.48,4.48,0,0,0,1.28-2.78,24.08,24.08,0,0,0,.11-4.46l-1.39-23c0-.74-.1-1.49-.14-2.23s-.1-1.48-.14-2.23-.1-1.48-.14-2.23c-.14.33-.29.68-.46,1s-.31.76-.45,1.18L85.11,113.09Z" transform="translate(-18.64 -19.48)"/><path d="M125.37,113.51a3.8,3.8,0,0,1-2.83-1.29,4.74,4.74,0,0,1,0-6.37,3.86,3.86,0,0,1,2.86-1.32,3.69,3.69,0,0,1,2.89,1.32,4.73,4.73,0,0,1,1.14,3.2,4.34,4.34,0,0,1-1.25,3.17A3.89,3.89,0,0,1,125.37,113.51Z" transform="translate(-18.64 -19.48)"/><path d="M150.15,110.62,160,90.32,150.15,70c10.67-11.65,0-27.71,0-27.71h8.26V21.06H137.16v8.27h0s-16.06-10.67-27.71,0h0l-20.3-9.85L68.86,29.33c-11.52-10.67-27.38,0-27.38,0V21.06H20.22V42.32h8.27S17.82,58.38,28.49,70L18.64,90.32l9.85,20.3c-10.67,11.51,0,27.38,0,27.38H20.22v21.25H41.48V151s16.06,10.66,27.71,0l20.3,9.85L109.78,151c11.52,10.66,27.38,0,27.38,0v8.26h21.25V138h-8.26S160.82,122.13,150.15,110.62Zm-9.83,30.54h-102v-102h102Z" transform="translate(-18.64 -19.48)" style="fill:#ccc;fill-rule:evenodd"/></svg>