<svg xmlns="http://www.w3.org/2000/svg" viewBox="0 0 141.36 141.36"><path d="M84.54,110.07q-2.62-6-5.3-11.88T74,86.19c-.56-1.27-1.1-2.55-1.64-3.84s-1-2.59-1.55-3.9-1-2.62-1.52-3.93c0,.44,0,.87,0,1.31s0,.87,0,1.31c0,1.43-.08,3.15-.14,5.15s-.13,4.15-.21,6.43-.14,4.57-.18,6.85-.08,4.44-.12,6.46c0,.87-.07,1.75-.09,2.62s-.07,1.69-.15,2.44l2.23-.12,2.24-.12v2.62H61.43v-2a4.35,4.35,0,0,0,2.71-.8,3.4,3.4,0,0,0,1.11-2,19.82,19.82,0,0,0,.29-2.68l1.13-27.15c0-.8.07-1.59.09-2.38s0-1.57.09-2.33c-.71,0-1.43.07-2.14.09s-1.43,0-2.14.09V67.79h9.11L81.92,91.43c.51,1.19,1,2.38,1.52,3.57s1,2.39,1.54,3.58,1.07,2.4,1.58,3.63h.12c.44-1.07.95-2.35,1.55-3.84s1.09-2.77,1.49-3.84Q92.33,88,95.17,81.4t5.56-13.61h8.82v2a4.08,4.08,0,0,0-2.44.56,3.46,3.46,0,0,0-1.37,2.06,12.09,12.09,0,0,0-.3,3.87L107,103.34a19.26,19.26,0,0,1,.12,2V107c.71,0,1.43-.07,2.17-.09s1.46,0,2.17-.09v2.62H98.11v-2a4.13,4.13,0,0,0,2.74-.89,3.89,3.89,0,0,0,1.11-2.39,21.85,21.85,0,0,0,.08-3.81l-1.19-19.65-.12-1.9c0-.64-.08-1.27-.11-1.91s-.08-1.27-.12-1.9l-.39.89c-.14.32-.27.65-.39,1l-13.4,33.11Z" transform="translate(-18.64 -19.48)"/><path d="M120.74,110.43a3.24,3.24,0,0,1-2.41-1.1,4,4,0,0,1,0-5.45,3.26,3.26,0,0,1,2.44-1.13,3.11,3.11,0,0,1,2.47,1.13,4,4,0,0,1,1,2.74,3.73,3.73,0,0,1-1.07,2.71A3.33,3.33,0,0,1,120.74,110.43Z" transform="translate(-18.64 -19.48)"/><path d="M150.15,110.62,160,90.32,150.15,70c10.67-11.65,0-27.71,0-27.71h8.26V21.06H137.16v8.27h0s-16.06-10.67-27.71,0h0l-20.3-9.85L68.86,29.33c-11.52-10.67-27.38,0-27.38,0V21.06H20.22V42.32h8.27S17.82,58.38,28.49,70L18.64,90.32l9.85,20.3c-10.67,11.51,0,27.38,0,27.38H20.22v21.25H41.48V151s16.06,10.66,27.71,0l20.3,9.85L109.78,151c11.52,10.66,27.38,0,27.38,0v8.26h21.25V138h-8.26S160.82,122.13,150.15,110.62Zm-12.24,28.13H40.73V41.57h97.18Z" transform="translate(-18.64 -19.48)" style="fill:#ccc;fill-rule:evenodd"/></svg>