<svg id="Layer_1" data-name="Layer 1" xmlns="http://www.w3.org/2000/svg" viewBox="0 0 27.11 18.4"><path d="M12.57,25.25c-.75-1.72-1.52-3.42-2.29-5.13S8.76,16.69,8,14.94c-.24-.54-.47-1.1-.7-1.65s-.46-1.12-.67-1.69S6.22,10.47,6,9.91c0,.19,0,.37,0,.56s0,.38,0,.57c0,.61,0,1.36-.07,2.22S5.85,15.05,5.81,16,5.75,18,5.74,19s0,1.91-.06,2.79c0,.37,0,.75,0,1.13s0,.73-.07,1.05l1-.05,1-.05V25H2.6v-.85a1.85,1.85,0,0,0,1.17-.35,1.45,1.45,0,0,0,.48-.86,8.12,8.12,0,0,0,.12-1.15l.49-11.72c0-.34,0-.68,0-1s0-.67,0-1L4,8.07l-.92,0V7H7l4.42,10.2.66,1.55c.21.51.43,1,.66,1.54s.46,1,.68,1.56h.06c.18-.46.41-1,.66-1.65s.47-1.2.65-1.66q1.13-2.82,2.35-5.67T19.56,7h3.8v.85a1.71,1.71,0,0,0-1.05.25,1.48,1.48,0,0,0-.59.88,5.09,5.09,0,0,0-.13,1.67l.67,11.69a8.4,8.4,0,0,1,0,.85v.75l.94,0,.93,0V25H18.43v-.85a1.79,1.79,0,0,0,1.18-.38,1.66,1.66,0,0,0,.48-1,8.71,8.71,0,0,0,0-1.65l-.51-8.48c0-.27,0-.54-.05-.82s0-.55,0-.82,0-.55-.05-.82l-.17.38c-.06.14-.12.29-.17.44L13.34,25.25Z" transform="translate(-2.6 -7)"/><path d="M28.19,25.4a1.39,1.39,0,0,1-1-.48,1.61,1.61,0,0,1-.45-1.16,1.7,1.7,0,0,1,.46-1.19,1.43,1.43,0,0,1,1.06-.48,1.34,1.34,0,0,1,1.06.48,1.73,1.73,0,0,1,.43,1.19,1.62,1.62,0,0,1-.46,1.16A1.43,1.43,0,0,1,28.19,25.4Z" transform="translate(-2.6 -7)"/></svg>